<?xml version="1.0" encoding="UTF-8"?>
<!DOCTYPE svg PUBLIC "-//W3C//DTD SVG 1.1//EN" "http://www.w3.org/Graphics/SVG/1.1/DTD/svg11.dtd">
<!-- Creator: CorelDRAW X7 -->
<svg xmlns="http://www.w3.org/2000/svg" xml:space="preserve" width="137.787mm" height="99.1458mm" version="1.1" style="shape-rendering:geometricPrecision; text-rendering:geometricPrecision; image-rendering:optimizeQuality; fill-rule:evenodd; clip-rule:evenodd"
viewBox="0 0 16179 11641"
 xmlns:xlink="http://www.w3.org/1999/xlink">
 <defs>
  <style type="text/css">
   <![CDATA[
    .str1 {stroke:white;stroke-width:8.94719}
    .str0 {stroke:white;stroke-width:58.7086;stroke-linecap:round;stroke-linejoin:round}
    .fil2 {fill:#0070C0}
    .fil9 {fill:#00B0F0}
    .fil11 {fill:#92CF50}
    .fil10 {fill:#C55A11}
    .fil8 {fill:#DA2EA8}
    .fil0 {fill:#FFC000}
    .fil1 {fill:white}
    .fil6 {fill:#00B0F0;fill-rule:nonzero}
    .fil5 {fill:#92CF50;fill-rule:nonzero}
    .fil7 {fill:#BF9000;fill-rule:nonzero}
    .fil4 {fill:#C55A11;fill-rule:nonzero}
    .fil3 {fill:#CCCCCC;fill-rule:nonzero}
    .fil12 {fill:white;fill-rule:nonzero}
   ]]>
  </style>
 </defs>
 <g id="Camada_x0020_1">
  <metadata id="CorelCorpID_0Corel-Layer"/>
  <path class="fil0" d="M7243 5924c-824,-134 -1551,23 -2114,596 -239,244 -261,382 -393,554 -174,-460 -206,-805 -603,-952 -472,-174 -951,120 -1096,391 -245,456 19,857 447,935 398,73 871,-203 1226,-302 -103,380 -156,634 1,1017 593,1449 3255,995 3594,-669 75,-372 -15,-721 -190,-974 -172,-250 -368,-389 -692,-537 215,-142 740,-184 1074,-499 340,-320 309,-820 -112,-1018 -443,-208 -938,22 -1157,259 -391,423 -101,722 15,1199z"/>
  <path class="fil1" d="M6306 6475c67,-182 533,-406 814,-235 98,60 59,22 72,96 -150,113 -121,-136 -486,-23 -326,101 -235,255 -400,162z"/>
  <path class="fil1" d="M5155 7159c8,-208 324,-617 752,-514l-26 93c-237,1 -390,5 -564,293 -80,132 -15,162 -162,128z"/>
  <path class="fil1" d="M5274 7613c445,-127 719,-108 1261,-383 504,-257 908,-610 978,-645 139,485 263,813 36,1336 -403,926 -1717,863 -2275,-308z"/>
  <path class="fil2" d="M10046 5978c-551,69 -851,248 -1122,537 -279,298 -393,802 -196,1269 282,670 1164,1255 2187,1140 1642,-185 1868,-1937 482,-2673 -363,-193 -861,-334 -1351,-273z"/>
  <path class="fil1" d="M9910 6308c186,-89 317,176 334,353 21,212 -50,446 -202,510 -338,140 -518,-679 -132,-863z"/>
  <path class="fil1" d="M11016 6744c338,-142 450,752 120,871 -347,124 -471,-723 -120,-871z"/>
  <path class="fil1" d="M11576 8041c-145,530 -907,727 -1524,506 -488,-175 -1030,-560 -917,-1224l2441 718z"/>
  <g id="_824684944">
   <path class="fil3" d="M6722 10456c0,105 -91,179 -272,222 -71,17 -136,25 -193,25 -73,0 -132,-11 -176,-35 -46,-24 -68,-59 -67,-103 1,-65 23,-120 67,-165 30,-32 74,-60 129,-83 34,-13 68,-26 102,-39 19,-9 28,-19 28,-30 0,-12 -18,-18 -54,-18 -233,0 -442,190 -628,570l2 0c2,0 12,-1 31,-2 19,-2 38,-2 57,-2 160,0 328,44 503,132 273,136 409,346 409,630 -227,-3 -408,-5 -545,-5 -113,0 -181,2 -205,5 -7,-19 -10,-40 -10,-63 0,-29 6,-45 19,-49 58,-17 96,-30 115,-40 38,-20 57,-45 57,-75 0,-73 -45,-146 -133,-219 -104,-84 -230,-127 -377,-127 -17,0 -25,8 -25,24 15,133 74,344 178,632 -62,-30 -150,-62 -263,-94 -142,-40 -259,-60 -351,-60 -67,0 -116,11 -149,33l4 -246c23,-7 50,-11 81,-11 50,0 104,14 162,41 -42,-115 -77,-254 -106,-419 -30,-174 -44,-337 -44,-487 0,-8 0,-19 1,-33 0,-13 1,-24 1,-32 0,-36 -16,-63 -46,-81 -22,-13 -69,-27 -140,-43 -16,-4 -24,-38 -23,-102 230,-21 494,-52 792,-91 -100,226 -149,456 -149,689 0,41 1,70 2,89 88,-230 181,-397 278,-500 128,-134 292,-201 492,-201 185,0 321,74 406,223 27,48 40,95 40,140z"/>
   <path class="fil3" d="M7760 11564c0,8 -4,12 -13,12 -7,0 -63,-5 -168,-16 -105,-10 -193,-15 -263,-15 -113,0 -312,23 -596,69 0,-23 9,-79 27,-169 1,-2 28,-8 81,-18 58,-10 97,-28 119,-51 17,-18 37,-115 62,-290 29,-190 43,-357 43,-501 0,-125 -13,-212 -39,-260 -6,-13 -18,-20 -38,-20 -15,0 -34,4 -58,12 -24,8 -38,12 -41,12 -11,0 -29,-19 -55,-58 -26,-38 -39,-67 -39,-86 0,-8 11,-13 34,-13 85,0 221,-10 411,-31 216,-23 376,-48 477,-75 4,-4 6,12 6,48 0,33 -6,51 -17,56 -83,34 -139,105 -166,213 -15,62 -30,205 -45,431 -2,40 -3,76 -3,107 0,218 25,354 75,409 14,16 35,24 60,24 19,0 42,-5 72,-15 30,-10 47,-14 52,-14 5,0 9,9 11,27 8,84 11,155 11,212z"/>
   <path class="fil3" d="M9378 11065c0,334 -208,501 -625,501 -65,0 -157,-4 -276,-12 -118,-9 -203,-13 -254,-13 -141,0 -245,25 -312,73l-20 -241c47,-31 95,-46 145,-46 35,0 67,8 99,25 -107,-280 -161,-606 -161,-977 0,-47 -17,-79 -53,-96 -3,-2 -41,-12 -113,-31 -13,-6 -19,-44 -19,-114 0,-71 3,-112 7,-122 141,121 347,182 616,182 29,0 70,-2 123,-5 53,-4 92,-5 117,-5 220,0 389,69 506,208 87,103 152,256 195,460 17,80 25,150 25,213zm-241 -169c0,-107 -47,-190 -140,-250 -61,-41 -158,-77 -291,-109 -91,-22 -189,-33 -295,-33 -16,0 -27,1 -33,2 -14,63 -21,133 -21,210 0,159 20,298 61,420 54,29 145,44 273,44 136,0 243,-23 320,-69 84,-49 126,-120 126,-215z"/>
   <path class="fil3" d="M10930 11005c0,59 -12,134 -35,223 -31,120 -116,215 -255,285 -144,73 -331,109 -560,109 -224,0 -402,-44 -533,-131 -109,-72 -164,-155 -164,-248 0,-59 23,-111 69,-153 52,-49 128,-80 227,-94 49,-6 99,-9 151,-9 106,0 190,15 251,46 60,30 90,69 90,118 0,74 -40,136 -119,187 -37,25 -102,53 -193,85 -35,12 -53,23 -53,33 0,31 65,46 195,46 102,0 189,-14 260,-44 88,-36 132,-89 132,-158 0,-10 -1,-22 -4,-35 -36,-183 -62,-293 -80,-329 -38,-74 -109,-111 -215,-111 -28,0 -75,3 -142,10 -67,8 -115,11 -145,11 -203,0 -304,-82 -304,-246 0,-52 10,-116 31,-190 28,-102 90,-183 186,-243 115,-73 272,-109 471,-109 205,0 364,33 479,97 104,58 155,132 155,222 0,134 -106,201 -320,201 -105,0 -193,-18 -266,-52 -69,-32 -103,-69 -103,-110 0,-60 46,-108 137,-142 35,-12 69,-23 105,-34 32,-12 48,-24 48,-37 0,-17 -22,-31 -67,-44 -44,-13 -95,-20 -151,-20 -69,0 -126,11 -170,33 -53,27 -79,66 -79,118 0,25 6,52 18,81 16,57 33,113 51,170 19,60 48,103 86,130 51,34 129,51 235,51 9,0 39,0 89,-2 51,-2 89,-3 114,-3 120,0 209,17 267,52 74,44 111,123 111,236z"/>
  </g>
  <g id="_824685680">
   <path class="fil4" d="M6688 10422c0,105 -91,179 -272,222 -71,17 -136,25 -194,25 -72,0 -131,-12 -175,-35 -46,-25 -68,-59 -68,-104 2,-64 24,-119 67,-164 31,-33 74,-60 130,-83 33,-13 68,-26 101,-39 19,-9 29,-19 29,-30 0,-12 -18,-18 -54,-18 -233,0 -443,190 -628,569l2 0c1,0 11,0 31,-1 19,-2 38,-2 57,-2 160,0 328,44 503,132 273,135 409,345 409,630 -227,-4 -409,-6 -546,-6 -112,0 -180,2 -204,6 -7,-19 -11,-40 -11,-64 0,-28 7,-45 20,-48 57,-17 96,-30 115,-40 38,-20 57,-45 57,-76 0,-72 -45,-145 -133,-218 -104,-85 -230,-127 -378,-127 -16,0 -24,8 -24,23 14,134 74,345 177,633 -62,-30 -149,-62 -262,-94 -142,-40 -259,-60 -351,-60 -67,0 -116,11 -149,33l4 -246c23,-7 50,-11 81,-11 50,0 104,13 162,40 -42,-114 -78,-253 -106,-418 -30,-174 -45,-337 -45,-488 0,-7 1,-18 1,-32 1,-14 1,-25 1,-33 0,-35 -15,-62 -45,-80 -23,-13 -70,-27 -141,-43 -16,-4 -23,-38 -22,-103 230,-20 494,-51 791,-90 -99,226 -148,456 -148,689 0,40 0,70 2,89 88,-230 180,-397 278,-500 127,-134 291,-201 492,-201 185,0 320,74 405,223 27,48 41,95 41,140z"/>
   <path class="fil5" d="M7726 11529c0,8 -4,13 -13,13 -7,0 -63,-6 -168,-16 -105,-10 -193,-15 -263,-15 -113,0 -312,23 -597,69 0,-23 9,-80 28,-170 0,-1 27,-7 81,-17 57,-10 97,-28 119,-52 17,-17 37,-114 62,-289 29,-191 43,-357 43,-501 0,-125 -13,-212 -39,-260 -6,-13 -19,-20 -39,-20 -14,0 -33,4 -57,12 -24,8 -38,12 -41,12 -11,0 -30,-19 -56,-58 -26,-38 -39,-67 -39,-86 0,-8 12,-13 35,-13 84,0 221,-10 410,-31 217,-23 377,-48 478,-75 4,-4 6,12 6,48 0,32 -6,51 -17,56 -83,34 -139,105 -166,213 -16,62 -30,205 -45,430 -2,41 -4,77 -4,108 0,217 25,354 76,409 14,16 34,24 60,24 18,0 42,-5 72,-15 30,-10 47,-15 52,-15 5,0 9,9 11,28 7,84 11,155 11,211z"/>
   <path class="fil6" d="M9344 11030c0,335 -209,502 -625,502 -66,0 -158,-4 -276,-13 -118,-8 -203,-12 -254,-12 -141,0 -245,24 -312,73l-20 -241c47,-31 95,-46 145,-46 34,0 67,8 98,25 -106,-281 -160,-607 -160,-977 0,-47 -18,-79 -53,-96 -3,-2 -41,-13 -113,-32 -13,-5 -19,-43 -19,-114 0,-71 2,-111 7,-121 141,121 346,181 616,181 29,0 70,-1 123,-5 52,-3 91,-4 116,-4 221,0 390,69 507,208 87,102 152,256 195,460 17,79 25,150 25,212zm-242 -168c0,-107 -46,-190 -139,-251 -61,-40 -158,-76 -291,-108 -91,-22 -189,-33 -295,-33 -17,0 -28,1 -33,2 -15,63 -22,133 -22,210 0,158 21,298 62,419 54,30 145,45 273,45 136,0 243,-23 320,-69 84,-49 125,-121 125,-215z"/>
   <path class="fil7" d="M10895 10971c0,59 -11,133 -34,223 -31,120 -116,215 -255,285 -145,73 -331,109 -560,109 -225,0 -402,-44 -533,-131 -109,-72 -164,-155 -164,-248 0,-60 23,-111 69,-154 52,-49 128,-80 226,-93 49,-6 100,-9 151,-9 107,0 191,15 252,46 60,29 90,69 90,118 0,74 -40,136 -119,187 -38,25 -102,53 -193,85 -35,12 -53,23 -53,33 0,31 65,46 195,46 102,0 189,-15 260,-44 88,-37 132,-89 132,-158 0,-10 -1,-22 -4,-35 -36,-184 -62,-293 -80,-329 -38,-74 -110,-111 -215,-111 -28,0 -75,3 -142,10 -67,7 -115,11 -145,11 -203,0 -304,-82 -304,-246 0,-52 10,-116 31,-190 28,-102 89,-183 186,-243 115,-73 272,-109 471,-109 204,0 364,32 479,96 103,59 155,133 155,223 0,134 -107,200 -320,200 -105,0 -193,-17 -266,-51 -69,-32 -103,-69 -103,-111 0,-60 46,-107 137,-141 35,-12 69,-23 104,-34 33,-12 49,-24 49,-37 0,-17 -23,-32 -67,-44 -44,-13 -95,-20 -151,-20 -69,0 -126,11 -170,33 -53,26 -80,66 -80,118 0,24 7,51 18,81 17,57 34,113 51,169 20,61 49,104 87,130 50,35 129,52 235,52 9,0 39,-1 89,-3 51,-2 88,-3 113,-3 121,0 210,18 268,52 74,45 110,124 110,237z"/>
  </g>
  <rect class="fil8 str0" x="29" y="1084" width="3013" height="3001"/>
  <rect class="fil9 str0" x="3042" y="1084" width="3013" height="3001"/>
  <rect class="fil0 str0" x="6055" y="1084" width="3013" height="3001"/>
  <rect class="fil10 str0" x="9067" y="1084" width="3013" height="3001"/>
  <rect class="fil11 str0" x="12080" y="1084" width="3013" height="3001"/>
  <rect class="fil8 str0" transform="matrix(1.16553 -0 0.409464 -0.409464 29.3511 1083.67)" width="2585" height="2575"/>
  <rect class="fil9 str0" transform="matrix(1.16553 -0 0.409464 -0.409464 3041.96 1083.67)" width="2585" height="2575"/>
  <rect class="fil0 str0" transform="matrix(1.16553 -0 0.409464 -0.409464 6054.57 1083.67)" width="2585" height="2575"/>
  <rect class="fil10 str0" transform="matrix(1.16553 -0 0.409464 -0.409464 9067.18 1083.67)" width="2585" height="2575"/>
  <rect class="fil11 str0" transform="matrix(1.16553 -0 0.409464 -0.409464 12079.8 1083.67)" width="2585" height="2575"/>
  <rect class="fil11 str0" transform="matrix(-0.408863 0.405919 -0 1.16553 16149.2 34.4705)" width="2585" height="2575"/>
  <path class="fil12 str1" d="M1294 2801l-19 62c-3,14 -8,32 -15,56 -34,118 -62,196 -85,233 -4,8 -12,19 -24,33 -41,37 -90,56 -148,56 -46,0 -84,-11 -112,-31 -28,-20 -42,-46 -42,-78 0,-23 8,-65 24,-125 17,-60 35,-117 55,-171 -49,-9 -73,-30 -73,-62 0,-24 7,-50 23,-79 15,-29 35,-55 58,-79 24,-23 46,-38 68,-45 10,-27 28,-83 54,-170 59,-187 107,-313 144,-377 15,-21 28,-38 39,-50 32,-31 73,-46 124,-46 31,0 59,5 83,16 24,11 42,26 55,45 13,19 19,42 19,67 0,36 -44,187 -132,451 -1,5 -4,11 -6,19 -3,9 -6,17 -8,24l-4 7 343 -7 18 -60c19,-64 40,-127 61,-189 22,-63 41,-113 56,-151 16,-38 31,-71 47,-100 16,-29 31,-50 44,-65 33,-35 78,-53 135,-53 97,0 146,42 146,127 0,79 -42,224 -128,435 -11,30 -18,49 -21,56 3,-1 5,-1 7,-2 2,0 4,0 6,0 34,0 61,6 81,18 20,12 29,28 29,49 0,14 -8,34 -25,59 -17,26 -35,49 -54,68 -19,20 -35,34 -49,42 -13,7 -38,14 -77,22l-3 15c-5,10 -11,27 -20,52 -13,37 -27,74 -40,111 -14,37 -25,66 -35,86 -9,21 -18,38 -26,52 -11,15 -23,28 -37,39 -30,24 -65,42 -104,58 -39,14 -71,22 -97,22 -29,0 -52,-8 -69,-22 -17,-15 -26,-35 -26,-62 0,-46 24,-140 71,-283 11,-31 19,-54 23,-68l-334 -5z"/>
  <path class="fil12 str1" d="M4603 2333l-171 363 254 0 -79 -363 -4 0zm-81 -248l-57 -104c14,-11 27,-19 40,-23 48,-16 106,-24 174,-24 69,0 123,19 160,59 33,34 59,82 80,144 21,62 40,150 58,265 9,58 17,102 24,131 22,82 37,135 44,157 7,23 20,60 39,110 7,14 15,34 25,60 10,26 20,51 30,73 20,49 52,114 94,194 -53,37 -98,63 -134,80 -36,16 -69,24 -100,24 -37,0 -68,-7 -92,-21 -25,-15 -48,-38 -68,-69 -23,-43 -47,-101 -71,-174 -3,-7 -5,-16 -9,-27 -3,-10 -7,-22 -11,-34 -74,31 -131,46 -172,46 -23,0 -43,-1 -60,-2 -15,-1 -82,-3 -201,-6l-10 20c-34,73 -66,128 -96,166 -30,39 -65,66 -104,81 -39,16 -88,24 -147,24 -34,0 -58,-4 -73,-11 -14,-8 -21,-20 -21,-37 0,-21 34,-78 103,-171 25,-33 43,-59 55,-78 -66,-12 -98,-35 -98,-69 0,-27 26,-69 78,-123 26,-26 49,-43 70,-50 22,-7 59,-11 113,-12 50,-92 83,-150 96,-175 14,-26 32,-58 54,-96 22,-39 47,-83 75,-132 28,-49 65,-114 112,-196z"/>
  <path class="fil12 str1" d="M7002 2796l64 -178 90 -228c30,-82 58,-147 82,-195 18,-33 27,-57 27,-71 0,-18 -15,-38 -44,-60 -19,-13 -29,-24 -29,-34 0,-13 20,-27 59,-41 33,-14 71,-26 113,-36 43,-10 77,-16 104,-16 52,0 92,14 119,43 31,31 69,131 115,298 19,68 40,134 62,197 23,64 42,109 57,137 4,10 16,29 34,58 21,-66 46,-152 74,-259 41,-168 79,-282 114,-341 11,-19 23,-35 37,-50 25,-24 53,-42 83,-54 30,-13 60,-19 90,-19 18,0 31,5 38,14 7,9 10,26 10,51 0,18 -1,31 -4,40 -7,33 -18,75 -33,127 -16,52 -38,118 -67,200 -28,81 -64,179 -106,295l-15 35c-5,15 -9,27 -13,37 -75,211 -133,349 -173,412 -8,13 -18,25 -29,36 -19,20 -38,29 -57,29 -48,0 -100,-51 -156,-153 -102,-184 -181,-373 -239,-567 -11,-36 -21,-70 -27,-102l-4 0 -113 358c-2,7 -4,14 -8,24 -4,10 -7,19 -9,28 -3,7 -6,15 -9,23 -3,8 -7,15 -9,21 -21,62 -37,109 -51,141 -13,31 -26,57 -39,78 -11,19 -28,40 -50,63 -32,29 -67,52 -106,69 -39,17 -77,25 -116,25 -31,0 -47,-13 -47,-38 0,-20 14,-53 42,-101 32,-54 69,-129 110,-223 6,-20 16,-45 29,-73z"/>
  <path class="fil12 str1" d="M10014 2796l65 -178 89 -228c31,-82 58,-147 83,-195 17,-33 26,-57 26,-71 0,-18 -14,-38 -44,-60 -19,-13 -28,-24 -28,-34 0,-13 19,-27 58,-41 33,-14 71,-26 114,-36 42,-10 77,-16 103,-16 53,0 92,14 119,43 32,31 70,131 116,298 18,68 39,134 62,197 23,64 41,109 56,137 5,10 16,29 35,58 21,-66 45,-152 74,-259 41,-168 79,-282 113,-341 11,-19 24,-35 37,-50 26,-24 54,-42 84,-54 30,-13 59,-19 90,-19 18,0 30,5 37,14 7,9 11,26 11,51 0,18 -2,31 -4,40 -7,33 -18,75 -34,127 -16,52 -38,118 -66,200 -29,81 -64,179 -107,295l-14 35c-5,15 -9,27 -13,37 -76,211 -134,349 -173,412 -8,13 -18,25 -29,36 -19,20 -39,29 -58,29 -48,0 -100,-51 -156,-153 -101,-184 -181,-373 -238,-567 -12,-36 -21,-70 -27,-102l-4 0 -114 358c-1,7 -4,14 -7,24 -4,10 -7,19 -10,28 -2,7 -5,15 -9,23 -3,8 -6,15 -8,21 -21,62 -38,109 -51,141 -13,31 -26,57 -39,78 -12,19 -28,40 -50,63 -32,29 -68,52 -106,69 -39,17 -78,25 -116,25 -32,0 -48,-13 -48,-38 0,-20 14,-53 43,-101 32,-54 69,-129 109,-223 7,-20 17,-45 29,-73z"/>
  <path class="fil12 str1" d="M13641 2333l-171 363 253 0 -79 -363 -3 0zm-81 -248l-58 -104c15,-11 28,-19 41,-23 48,-16 106,-24 174,-24 69,0 123,19 160,59 33,34 59,82 80,144 21,62 40,150 57,265 10,58 18,102 25,131 22,82 36,135 44,157 7,23 20,60 39,110 6,14 14,34 25,60 10,26 20,51 29,73 21,49 52,114 94,194 -52,37 -97,63 -133,80 -37,16 -70,24 -100,24 -37,0 -68,-7 -93,-21 -24,-15 -47,-38 -67,-69 -24,-43 -47,-101 -71,-174 -3,-7 -6,-16 -9,-27 -3,-10 -7,-22 -11,-34 -74,31 -131,46 -172,46 -23,0 -43,-1 -60,-2 -15,-1 -82,-3 -201,-6l-10 20c-34,73 -66,128 -96,166 -31,39 -65,66 -104,81 -39,16 -88,24 -147,24 -34,0 -58,-4 -73,-11 -14,-8 -21,-20 -21,-37 0,-21 34,-78 103,-171 24,-33 43,-59 55,-78 -66,-12 -99,-35 -99,-69 0,-27 27,-69 79,-123 25,-26 48,-43 70,-50 22,-7 59,-11 113,-12 50,-92 82,-150 96,-175 14,-26 32,-58 54,-96 22,-39 47,-83 74,-132 28,-49 66,-114 113,-196zm162 -304c29,-30 60,-72 96,-126 17,-25 28,-40 31,-45 4,-4 11,-8 21,-12 27,-9 63,-19 107,-30 45,-10 75,-16 89,-16 20,0 30,9 30,26 0,37 -35,88 -105,154 -53,51 -106,90 -158,117 -52,27 -102,40 -149,40 -27,0 -41,-9 -41,-29 0,-7 3,-14 8,-20 5,-5 15,-13 29,-24 6,-4 20,-16 42,-35z"/>
 </g>
</svg>
